<?xml version="1.0" standalone="no"?><!DOCTYPE svg PUBLIC "-//W3C//DTD SVG 1.1//EN" "http://www.w3.org/Graphics/SVG/1.1/DTD/svg11.dtd"><svg t="1613961685222" class="icon" viewBox="0 0 1024 1024" version="1.1" xmlns="http://www.w3.org/2000/svg" p-id="4396" width="48" height="48" xmlns:xlink="http://www.w3.org/1999/xlink"><defs><style type="text/css"></style></defs><path d="M659.71 148.51A391.64 391.64 0 0 0 505 116.84c-217 0-393 176-393 393a393.57 393.57 0 0 0 13.63 102.66c89.22-231.08 288.76-407.3 534.08-463.99z" fill="#FF8092" p-id="4397"></path><path d="M320.8 368.57A624.84 624.84 0 0 0 154 687.62a394.63 394.63 0 0 0 196.65 191.26C309 793.68 285.08 694 285.08 587.51c0-77.61 12.73-151.51 35.72-218.94z" fill="#FF8092" p-id="4398"></path><path d="M330.82 694.53a606.23 606.23 0 0 0 76.76 202.65 392.79 392.79 0 0 0 109.58 15.6c132.92 0 250.33-66 321.46-167a644.28 644.28 0 0 1-194.55 29.9 641.72 641.72 0 0 1-313.25-81.15z" fill="#FF8092" p-id="4399"></path><path d="M896.58 406.74c-40 153.2-154.59 276.25-302.65 328a553.74 553.74 0 0 0 66.3 4 546.92 546.92 0 0 0 206.65-40.3 392.74 392.74 0 0 0 29.7-291.74z" fill="#FF8092" p-id="4400"></path><path d="M755 561.1a491.1 491.1 0 0 0 106.24-235.87 394.87 394.87 0 0 0-157.56-157A461.48 461.48 0 0 0 564 205.4a715 715 0 0 1 191 355.7zM519.08 270.58s-68.24 6.82-141.6 75.07c0 0-15.36 34.12-23.89 92.13 0 0 107.49-97.25 276.39-6.83 0.02 0.05-6.82-97.25-110.9-160.37z" fill="#FF8092" p-id="4401"></path><path d="M437.42 697.73s37.23-3.77 91.73-25.38c0 0-138-44.47-144.11-236 0 0-80.81 54.54-83.44 176.23 0 0.04 40.03 55.73 135.82 85.15z" fill="#FF8092" p-id="4402"></path><path d="M706.56 630s28.22-62.52 5.79-160.18c0 0-21.87-30.35-67.84-66.75 0 0 30.48 141.71-132.29 242.78 0-0.05 87.64 42.66 194.34-15.85zM467.53 516.82a44.73 44.73 0 1 0 44.73-44.73 44.73 44.73 0 0 0-44.73 44.73z" fill="#FF8092" p-id="4403"></path></svg>