<?xml version="1.0" standalone="no"?><!DOCTYPE svg PUBLIC "-//W3C//DTD SVG 1.1//EN" "http://www.w3.org/Graphics/SVG/1.1/DTD/svg11.dtd"><svg t="1613957974037" class="icon" viewBox="0 0 1024 1024" version="1.1" xmlns="http://www.w3.org/2000/svg" p-id="1818" width="100" height="100" xmlns:xlink="http://www.w3.org/1999/xlink"><defs><style type="text/css"></style></defs><path d="M533.338 831.926c0 11.81-9.56 21.34-21.338 21.34s-21.308-9.53-21.308-21.34c0-11.778 9.53-21.306 21.308-21.306s21.338 9.528 21.338 21.306z" p-id="1819"></path><path d="M426.706 1023.882H598.2l84.448-255.94L512 597.324l-170.618 170.618z" fill="#FFCE54" p-id="1820"></path><path d="M618.662 981.236h-85.324v-149.31c0-11.778-9.56-21.306-21.338-21.306s-21.308 9.53-21.308 21.306v149.31h-85.324c-11.778 0-21.338 9.56-21.338 21.338 0 11.78 9.56 21.308 21.338 21.308h213.294c11.78 0 21.306-9.53 21.306-21.308s-9.526-21.338-21.306-21.338z" fill="#F6BB42" p-id="1821"></path><path d="M106.78 512h825.654v42.678H106.78z" fill="#434A54" p-id="1822"></path><path d="M959.896 533.338m-63.986 0a63.986 63.986 0 1 0 127.972 0 63.986 63.986 0 1 0-127.972 0Z" fill="#656D78" p-id="1823"></path><path d="M64.102 533.338m-63.986 0a63.986 63.986 0 1 0 127.972 0 63.986 63.986 0 1 0-127.972 0Z" fill="#656D78" p-id="1824"></path><path d="M933.84 0.118a431.21 431.21 0 0 1 4.75 63.986c0 57.612-11.28 113.474-33.524 166.054-21.464 50.77-52.238 96.416-91.418 135.594-39.208 39.18-84.824 69.954-135.624 91.416-52.55 22.246-108.412 33.524-166.024 33.524-57.612 0-113.474-11.278-166.024-33.524-50.8-21.464-96.416-52.238-135.594-91.416s-69.952-84.824-91.448-135.594C96.72 177.578 85.442 121.714 85.442 64.104c0-21.59 1.592-42.928 4.75-63.986H47.106a475.222 475.222 0 0 0-4.312 63.986C42.794 323.262 252.872 533.34 512 533.34c259.16 0 469.236-210.078 469.236-469.236 0-21.684-1.5-43.052-4.342-63.986H933.84z" fill="#CCD1D9" p-id="1825"></path><path d="M0.118 0.118h127.97v127.97H0.118zM895.91 0.118h127.972v127.97h-127.972zM448.014 469.354h127.97v127.97h-127.97z" fill="#E6E9ED" p-id="1826"></path></svg>